<?xml version="1.0" encoding="UTF-8"?>
<svg xmlns="http://www.w3.org/2000/svg" id="Outline" viewBox="0 0 512 512" width="512" height="512"><path d="M424,376V312c0-.148,0-.3-.013-.444L409.667,53.777A40.008,40.008,0,0,0,369.73,16H142.27a40.01,40.01,0,0,0-39.938,37.776l-14.32,257.78Q88,311.778,88,312v64a24.027,24.027,0,0,0,24,24h33.052L89.344,483.562A8,8,0,0,0,96,496h32a8,8,0,0,0,6.656-3.562L142.948,480h226.1l8.292,12.438A8,8,0,0,0,384,496h32a8,8,0,0,0,6.656-12.438L366.948,400H400A24.028,24.028,0,0,0,424,376ZM136,64v88a40.045,40.045,0,0,0,40,40h8v69.754l-16-4V216a8,8,0,0,0-6.059-7.761l-51.45-12.866L117.789,64Zm258.211,0,7.3,131.373L350.06,208.239A8,8,0,0,0,344,216v41.755l-16,4V192h8a40.045,40.045,0,0,0,40-40V64ZM200,192H312V304H200Zm128,86.246,77.043-19.259,2.5,45.013H328Zm76.139-35.524L360,253.755V222.246l42.412-10.607ZM360,152a24.028,24.028,0,0,1-24,24h-8V64h32Zm-48,24H200V64H312Zm-128,0h-8a24.027,24.027,0,0,1-24-24V64h32Zm-32,46.246v31.509l-44.139-11.033,1.727-31.083Zm32,56V304H104.457l2.5-45.013ZM408,320v16H104V320ZM142.27,32H369.73a24.015,24.015,0,0,1,22.63,16H119.64A24.016,24.016,0,0,1,142.27,32ZM104,376V352H408v24a8.009,8.009,0,0,1-8,8H328v-8a8,8,0,0,0-8-8H192a8,8,0,0,0-8,8v8H112A8.009,8.009,0,0,1,104,376Zm209.345,20.437h0l.013.02.018.026L315.719,400H196.281l2.343-3.515.02-.029.012-.018h0A7.962,7.962,0,0,0,200,392v-8H312v8A7.955,7.955,0,0,0,313.345,396.437ZM185.615,416h140.77l10.667,16h-162.1Zm-61.9,64H110.948l53.333-80h12.771Zm29.9-16,10.666-16H347.719l10.666,16Zm247.437,16H388.281l-53.333-80h12.771Z"/></svg>
